<svg xmlns="http://www.w3.org/2000/svg" xmlns:xlink="http://www.w3.org/1999/xlink" width="65" zoomAndPan="magnify" viewBox="0 0 48.75 48.749998" height="65" preserveAspectRatio="xMidYMid meet" version="1.0"><defs><clipPath id="id1"><path d="M 0 0 L 48.5 0 L 48.5 48.5 L 0 48.5 Z M 0 0 " clip-rule="nonzero"/></clipPath></defs><g clip-path="url(#id1)"><path fill="#000000" d="M 39.714844 27.351562 C 36.652344 27.351562 33.9375 28.886719 32.304688 31.226562 L 25.898438 27.53125 L 36.90625 21.191406 C 37.597656 21.96875 38.601562 22.457031 39.714844 22.457031 C 41.789062 22.457031 43.476562 20.769531 43.476562 18.695312 C 43.476562 16.621094 41.789062 14.933594 39.714844 14.933594 C 37.640625 14.933594 35.957031 16.621094 35.957031 18.695312 C 35.957031 19.105469 36.023438 19.503906 36.144531 19.875 L 25.136719 26.210938 L 25.136719 18.035156 C 29.761719 17.648438 33.410156 13.757812 33.410156 9.035156 C 33.410156 4.050781 29.355469 0 24.375 0 C 19.394531 0 15.339844 4.050781 15.339844 9.035156 C 15.339844 13.757812 18.988281 17.648438 23.613281 18.035156 L 23.613281 26.210938 L 12.605469 19.875 C 12.726562 19.503906 12.792969 19.105469 12.792969 18.695312 C 12.792969 16.621094 11.109375 14.933594 9.035156 14.933594 C 6.960938 14.933594 5.273438 16.621094 5.273438 18.695312 C 5.273438 20.769531 6.960938 22.457031 9.035156 22.457031 C 10.148438 22.457031 11.152344 21.96875 11.84375 21.191406 L 22.851562 27.53125 L 16.445312 31.226562 C 14.8125 28.886719 12.097656 27.351562 9.035156 27.351562 C 4.050781 27.351562 0 31.40625 0 36.386719 C 0 41.367188 4.050781 45.421875 9.035156 45.421875 C 14.015625 45.421875 18.066406 41.367188 18.066406 36.386719 C 18.066406 35.015625 17.757812 33.710938 17.210938 32.546875 L 23.613281 28.847656 L 23.613281 41.304688 C 21.902344 41.660156 20.613281 43.175781 20.613281 44.988281 C 20.613281 47.0625 22.300781 48.75 24.375 48.75 C 26.449219 48.75 28.136719 47.0625 28.136719 44.988281 C 28.136719 43.175781 26.847656 41.660156 25.136719 41.304688 L 25.136719 28.847656 L 31.539062 32.546875 C 30.992188 33.710938 30.683594 35.015625 30.683594 36.386719 C 30.683594 41.367188 34.734375 45.421875 39.714844 45.421875 C 44.699219 45.421875 48.75 41.367188 48.75 36.386719 C 48.75 31.40625 44.699219 27.351562 39.714844 27.351562 Z M 39.714844 16.457031 C 40.949219 16.457031 41.953125 17.460938 41.953125 18.695312 C 41.953125 19.929688 40.949219 20.933594 39.714844 20.933594 C 38.484375 20.933594 37.480469 19.929688 37.480469 18.695312 C 37.480469 17.460938 38.484375 16.457031 39.714844 16.457031 Z M 9.035156 20.933594 C 7.800781 20.933594 6.796875 19.929688 6.796875 18.695312 C 6.796875 17.460938 7.800781 16.457031 9.035156 16.457031 C 10.265625 16.457031 11.269531 17.460938 11.269531 18.695312 C 11.269531 19.929688 10.265625 20.933594 9.035156 20.933594 Z M 4.105469 42.042969 C 4.535156 39.683594 6.59375 37.945312 9.035156 37.945312 C 11.476562 37.945312 13.53125 39.683594 13.964844 42.042969 C 12.644531 43.195312 10.917969 43.898438 9.035156 43.898438 C 7.148438 43.898438 5.425781 43.195312 4.105469 42.042969 Z M 9.035156 36.421875 C 7.84375 36.421875 6.875 35.453125 6.875 34.261719 C 6.875 33.074219 7.84375 32.105469 9.035156 32.105469 C 10.222656 32.105469 11.191406 33.074219 11.191406 34.261719 C 11.191406 35.453125 10.222656 36.421875 9.035156 36.421875 Z M 15.171875 40.703125 C 14.546875 38.988281 13.230469 37.625 11.566406 36.929688 C 12.273438 36.257812 12.714844 35.3125 12.714844 34.261719 C 12.714844 32.234375 11.0625 30.582031 9.035156 30.582031 C 7.003906 30.582031 5.351562 32.234375 5.351562 34.261719 C 5.351562 35.3125 5.792969 36.257812 6.5 36.929688 C 4.839844 37.625 3.519531 38.988281 2.894531 40.703125 C 2.03125 39.480469 1.523438 37.992188 1.523438 36.386719 C 1.523438 32.246094 4.894531 28.875 9.035156 28.875 C 13.175781 28.875 16.542969 32.246094 16.542969 36.386719 C 16.542969 37.992188 16.035156 39.480469 15.171875 40.703125 Z M 24.375 9.070312 C 23.183594 9.070312 22.214844 8.101562 22.214844 6.910156 C 22.214844 5.71875 23.183594 4.75 24.375 4.75 C 25.566406 4.75 26.535156 5.71875 26.535156 6.910156 C 26.535156 8.101562 25.566406 9.070312 24.375 9.070312 Z M 29.304688 14.691406 C 27.984375 15.84375 26.261719 16.542969 24.375 16.542969 C 22.488281 16.542969 20.765625 15.84375 19.445312 14.691406 C 19.878906 12.332031 21.933594 10.59375 24.375 10.59375 C 26.816406 10.59375 28.871094 12.332031 29.304688 14.691406 Z M 24.375 1.523438 C 28.515625 1.523438 31.886719 4.890625 31.886719 9.035156 C 31.886719 10.640625 31.375 12.128906 30.515625 13.351562 C 29.886719 11.636719 28.570312 10.273438 26.910156 9.578125 C 27.617188 8.90625 28.058594 7.960938 28.058594 6.910156 C 28.058594 4.878906 26.40625 3.226562 24.375 3.226562 C 22.34375 3.226562 20.691406 4.878906 20.691406 6.910156 C 20.691406 7.960938 21.132812 8.90625 21.839844 9.578125 C 20.179688 10.273438 18.863281 11.636719 18.234375 13.351562 C 17.375 12.128906 16.863281 10.640625 16.863281 9.035156 C 16.863281 4.894531 20.234375 1.523438 24.375 1.523438 Z M 26.613281 44.988281 C 26.613281 46.222656 25.609375 47.226562 24.375 47.226562 C 23.140625 47.226562 22.136719 46.222656 22.136719 44.988281 C 22.136719 43.753906 23.140625 42.75 24.375 42.75 C 25.609375 42.75 26.613281 43.753906 26.613281 44.988281 Z M 39.714844 28.875 C 43.855469 28.875 47.226562 32.246094 47.226562 36.386719 C 47.226562 37.992188 46.71875 39.480469 45.855469 40.703125 C 45.230469 38.988281 43.910156 37.625 42.25 36.929688 C 42.957031 36.257812 43.398438 35.3125 43.398438 34.261719 C 43.398438 32.234375 41.746094 30.582031 39.714844 30.582031 C 37.6875 30.582031 36.035156 32.234375 36.035156 34.261719 C 36.035156 35.3125 36.476562 36.257812 37.183594 36.929688 C 35.519531 37.625 34.203125 38.988281 33.578125 40.703125 C 32.714844 39.480469 32.207031 37.992188 32.207031 36.386719 C 32.207031 32.246094 35.574219 28.875 39.714844 28.875 Z M 39.714844 36.421875 C 38.527344 36.421875 37.558594 35.453125 37.558594 34.261719 C 37.558594 33.074219 38.527344 32.105469 39.714844 32.105469 C 40.90625 32.105469 41.875 33.074219 41.875 34.261719 C 41.875 35.453125 40.90625 36.421875 39.714844 36.421875 Z M 34.785156 42.042969 C 35.21875 39.683594 37.273438 37.945312 39.714844 37.945312 C 42.15625 37.945312 44.214844 39.683594 44.644531 42.042969 C 43.324219 43.195312 41.601562 43.898438 39.714844 43.898438 C 37.832031 43.898438 36.105469 43.195312 34.785156 42.042969 Z M 34.785156 42.042969 " fill-opacity="1" fill-rule="nonzero"/></g></svg>