<svg xmlns="http://www.w3.org/2000/svg" xmlns:xlink="http://www.w3.org/1999/xlink" width="65" zoomAndPan="magnify" viewBox="0 0 48.75 48.749998" height="65" preserveAspectRatio="xMidYMid meet" version="1.0"><defs><clipPath id="id1"><path d="M 22 27 L 47 27 L 47 48.5 L 22 48.5 Z M 22 27 " clip-rule="nonzero"/></clipPath><clipPath id="id2"><path d="M 27 2 L 48.5 2 L 48.5 27 L 27 27 Z M 27 2 " clip-rule="nonzero"/></clipPath></defs><path fill="#000000" d="M 22.410156 0 L 21.429688 1.308594 L 22.828125 2.355469 C 12.199219 3.023438 3.859375 10.484375 2.296875 20.984375 L 3.914062 21.222656 C 5.367188 11.441406 12.796875 4.707031 22.644531 3.996094 L 21.429688 4.90625 L 22.410156 6.214844 L 25.683594 3.761719 C 25.785156 3.683594 25.867188 3.589844 25.925781 3.472656 C 25.980469 3.359375 26.011719 3.238281 26.011719 3.109375 C 26.011719 2.980469 25.980469 2.859375 25.925781 2.742188 C 25.867188 2.628906 25.785156 2.53125 25.683594 2.453125 Z M 22.410156 0 " fill-opacity="1" fill-rule="nonzero"/><path fill="#000000" d="M 28.464844 9.652344 C 27.640625 9.652344 26.867188 9.847656 26.144531 10.238281 C 25.417969 10.628906 24.828125 11.164062 24.375 11.851562 C 24.082031 11.414062 23.730469 11.03125 23.316406 10.707031 C 22.902344 10.378906 22.445312 10.128906 21.953125 9.949219 C 21.457031 9.769531 20.945312 9.671875 20.417969 9.660156 C 19.890625 9.644531 19.375 9.714844 18.871094 9.867188 C 18.367188 10.015625 17.898438 10.246094 17.46875 10.546875 C 17.035156 10.847656 16.664062 11.210938 16.347656 11.636719 C 16.035156 12.058594 15.792969 12.519531 15.628906 13.019531 C 15.460938 13.519531 15.378906 14.03125 15.378906 14.558594 C 15.378906 14.65625 15.378906 14.75 15.386719 14.84375 C 14.90625 15.011719 14.464844 15.25 14.058594 15.554688 C 13.652344 15.859375 13.300781 16.21875 13.007812 16.632812 C 12.714844 17.046875 12.492188 17.496094 12.335938 17.980469 C 12.183594 18.464844 12.105469 18.960938 12.105469 19.46875 C 12.105469 19.5625 12.105469 19.65625 12.113281 19.753906 C 11.636719 19.921875 11.191406 20.15625 10.789062 20.460938 C 10.382812 20.765625 10.03125 21.128906 9.738281 21.539062 C 9.445312 21.953125 9.222656 22.402344 9.066406 22.886719 C 8.914062 23.371094 8.835938 23.867188 8.835938 24.375 C 8.835938 24.882812 8.914062 25.378906 9.066406 25.859375 C 9.222656 26.34375 9.445312 26.792969 9.738281 27.207031 C 10.03125 27.621094 10.382812 27.980469 10.789062 28.285156 C 11.191406 28.589844 11.636719 28.828125 12.113281 28.996094 C 12.105469 29.09375 12.105469 29.1875 12.105469 29.28125 C 12.105469 29.789062 12.183594 30.285156 12.335938 30.769531 C 12.492188 31.253906 12.714844 31.703125 13.007812 32.117188 C 13.300781 32.53125 13.652344 32.890625 14.058594 33.195312 C 14.464844 33.5 14.90625 33.738281 15.386719 33.90625 C 15.378906 34 15.378906 34.09375 15.378906 34.191406 C 15.378906 34.71875 15.460938 35.230469 15.628906 35.730469 C 15.792969 36.230469 16.035156 36.691406 16.347656 37.113281 C 16.664062 37.539062 17.035156 37.902344 17.46875 38.203125 C 17.898438 38.503906 18.367188 38.734375 18.871094 38.882812 C 19.375 39.035156 19.890625 39.105469 20.417969 39.089844 C 20.945312 39.078125 21.457031 38.980469 21.953125 38.800781 C 22.445312 38.621094 22.902344 38.371094 23.316406 38.042969 C 23.730469 37.71875 24.082031 37.335938 24.375 36.898438 C 24.667969 37.335938 25.019531 37.71875 25.433594 38.042969 C 25.847656 38.371094 26.304688 38.621094 26.796875 38.800781 C 27.292969 38.980469 27.804688 39.078125 28.332031 39.089844 C 28.859375 39.105469 29.375 39.035156 29.878906 38.882812 C 30.382812 38.734375 30.851562 38.503906 31.28125 38.203125 C 31.714844 37.902344 32.085938 37.539062 32.402344 37.113281 C 32.714844 36.691406 32.957031 36.230469 33.121094 35.730469 C 33.289062 35.230469 33.371094 34.71875 33.371094 34.191406 C 33.371094 34.09375 33.371094 34 33.363281 33.90625 C 33.84375 33.738281 34.285156 33.5 34.691406 33.195312 C 35.097656 32.890625 35.449219 32.53125 35.742188 32.117188 C 36.035156 31.703125 36.257812 31.253906 36.414062 30.769531 C 36.566406 30.285156 36.644531 29.789062 36.644531 29.28125 C 36.644531 29.1875 36.644531 29.09375 36.636719 28.996094 C 37.113281 28.828125 37.558594 28.59375 37.960938 28.289062 C 38.367188 27.984375 38.71875 27.621094 39.011719 27.210938 C 39.304688 26.796875 39.527344 26.347656 39.683594 25.863281 C 39.835938 25.378906 39.914062 24.882812 39.914062 24.375 C 39.914062 23.867188 39.835938 23.371094 39.683594 22.890625 C 39.527344 22.40625 39.304688 21.957031 39.011719 21.542969 C 38.71875 21.128906 38.367188 20.769531 37.960938 20.464844 C 37.558594 20.160156 37.113281 19.921875 36.636719 19.753906 C 36.644531 19.65625 36.644531 19.5625 36.644531 19.46875 C 36.644531 18.960938 36.566406 18.464844 36.414062 17.980469 C 36.257812 17.496094 36.035156 17.046875 35.742188 16.632812 C 35.449219 16.21875 35.097656 15.859375 34.691406 15.554688 C 34.285156 15.25 33.84375 15.011719 33.363281 14.84375 C 33.371094 14.75 33.371094 14.65625 33.371094 14.558594 C 33.371094 14.238281 33.339844 13.917969 33.277344 13.601562 C 33.214844 13.285156 33.121094 12.980469 32.996094 12.683594 C 32.875 12.382812 32.722656 12.101562 32.542969 11.835938 C 32.363281 11.566406 32.160156 11.320312 31.933594 11.089844 C 31.707031 10.863281 31.457031 10.660156 31.191406 10.480469 C 30.921875 10.300781 30.640625 10.148438 30.34375 10.027344 C 30.042969 9.902344 29.738281 9.808594 29.421875 9.746094 C 29.105469 9.683594 28.785156 9.652344 28.464844 9.652344 Z M 23.558594 21.964844 C 20.75 22.242188 18.648438 23.917969 18.648438 26.011719 L 20.285156 26.011719 C 20.285156 24.847656 21.714844 23.84375 23.558594 23.609375 L 23.558594 34.191406 C 23.558594 34.421875 23.535156 34.648438 23.488281 34.875 C 23.441406 35.101562 23.371094 35.320312 23.277344 35.53125 C 23.183594 35.742188 23.070312 35.9375 22.933594 36.125 C 22.796875 36.3125 22.644531 36.484375 22.472656 36.636719 C 22.300781 36.792969 22.117188 36.925781 21.917969 37.039062 C 21.71875 37.15625 21.507812 37.25 21.289062 37.320312 C 21.070312 37.390625 20.84375 37.4375 20.613281 37.460938 C 20.386719 37.484375 20.15625 37.480469 19.925781 37.457031 C 19.699219 37.433594 19.472656 37.382812 19.253906 37.308594 C 19.035156 37.238281 18.828125 37.144531 18.628906 37.027344 C 18.429688 36.910156 18.246094 36.773438 18.074219 36.617188 C 17.90625 36.460938 17.753906 36.289062 17.621094 36.101562 C 17.484375 35.914062 17.375 35.714844 17.28125 35.503906 C 17.191406 35.289062 17.121094 35.070312 17.078125 34.847656 C 17.03125 34.621094 17.011719 34.390625 17.015625 34.160156 C 17.015625 33.929688 17.042969 33.703125 17.09375 33.476562 C 17.144531 33.25 17.105469 33.039062 16.976562 32.847656 C 16.960938 32.820312 16.933594 32.808594 16.914062 32.785156 C 17.488281 31.960938 17.796875 31.046875 17.832031 30.046875 C 17.855469 29.195312 17.566406 28.472656 16.964844 27.875 L 15.828125 29.054688 C 16.09375 29.332031 16.21875 29.660156 16.195312 30.046875 C 16.148438 30.820312 15.882812 31.511719 15.394531 32.117188 C 15.089844 31.945312 14.820312 31.734375 14.582031 31.472656 C 14.347656 31.214844 14.160156 30.925781 14.015625 30.605469 C 13.875 30.285156 13.789062 29.953125 13.753906 29.605469 C 13.722656 29.253906 13.746094 28.910156 13.824219 28.570312 C 13.875 28.34375 13.835938 28.132812 13.707031 27.941406 C 13.578125 27.746094 13.398438 27.628906 13.171875 27.589844 C 12.792969 27.523438 12.4375 27.394531 12.105469 27.203125 C 11.773438 27.011719 11.484375 26.765625 11.238281 26.472656 C 10.992188 26.179688 10.800781 25.851562 10.671875 25.492188 C 10.539062 25.132812 10.472656 24.757812 10.472656 24.375 C 10.472656 23.992188 10.539062 23.621094 10.671875 23.257812 C 10.800781 22.898438 10.992188 22.570312 11.238281 22.277344 C 11.484375 21.984375 11.773438 21.742188 12.105469 21.550781 C 12.4375 21.359375 12.792969 21.230469 13.171875 21.164062 C 13.179688 21.164062 13.191406 21.152344 13.199219 21.152344 C 14.402344 21.390625 15.378906 23.132812 15.378906 25.191406 L 17.011719 25.191406 C 17.011719 22.382812 15.636719 20.105469 13.753906 19.582031 C 13.753906 19.546875 13.742188 19.503906 13.742188 19.46875 C 13.742188 19.082031 13.808594 18.710938 13.9375 18.351562 C 14.070312 17.988281 14.257812 17.664062 14.507812 17.371094 C 14.753906 17.074219 15.042969 16.832031 15.375 16.640625 C 15.707031 16.449219 16.0625 16.320312 16.441406 16.253906 C 16.449219 16.253906 16.457031 16.246094 16.46875 16.242188 C 17.675781 16.480469 18.648438 18.226562 18.648438 20.285156 L 20.285156 20.285156 C 20.285156 17.476562 18.910156 15.199219 17.027344 14.671875 C 17.027344 14.636719 17.011719 14.59375 17.011719 14.558594 C 17.011719 14.125 17.097656 13.707031 17.261719 13.308594 C 17.429688 12.90625 17.664062 12.554688 17.972656 12.246094 C 18.277344 11.9375 18.632812 11.703125 19.03125 11.535156 C 19.433594 11.371094 19.851562 11.289062 20.285156 11.289062 C 20.71875 11.289062 21.136719 11.371094 21.539062 11.535156 C 21.9375 11.703125 22.292969 11.9375 22.597656 12.246094 C 22.90625 12.554688 23.140625 12.90625 23.308594 13.308594 C 23.472656 13.707031 23.558594 14.125 23.558594 14.558594 Z M 35.007812 19.46875 C 35.007812 19.503906 34.996094 19.542969 34.996094 19.582031 C 33.113281 20.105469 31.738281 22.382812 31.738281 25.191406 L 33.371094 25.191406 C 33.371094 23.132812 34.347656 21.390625 35.550781 21.152344 C 35.5625 21.152344 35.570312 21.160156 35.582031 21.160156 C 35.957031 21.226562 36.3125 21.355469 36.644531 21.550781 C 36.976562 21.742188 37.269531 21.984375 37.515625 22.277344 C 37.761719 22.570312 37.949219 22.898438 38.082031 23.257812 C 38.210938 23.621094 38.277344 23.992188 38.277344 24.375 C 38.277344 24.757812 38.210938 25.128906 38.082031 25.492188 C 37.949219 25.851562 37.761719 26.179688 37.515625 26.472656 C 37.269531 26.765625 36.976562 27.007812 36.644531 27.199219 C 36.3125 27.394531 35.957031 27.523438 35.582031 27.589844 C 35.351562 27.628906 35.171875 27.746094 35.042969 27.9375 C 34.914062 28.132812 34.875 28.34375 34.925781 28.570312 C 35.003906 28.910156 35.027344 29.253906 34.996094 29.601562 C 34.964844 29.953125 34.875 30.285156 34.734375 30.605469 C 34.59375 30.925781 34.402344 31.214844 34.167969 31.472656 C 33.933594 31.730469 33.660156 31.945312 33.355469 32.117188 C 32.867188 31.511719 32.601562 30.820312 32.554688 30.046875 C 32.53125 29.660156 32.65625 29.332031 32.921875 29.054688 L 31.785156 27.875 C 31.183594 28.472656 30.894531 29.195312 30.917969 30.046875 C 30.953125 31.046875 31.257812 31.960938 31.832031 32.785156 C 31.8125 32.808594 31.789062 32.820312 31.769531 32.847656 C 31.640625 33.039062 31.601562 33.25 31.652344 33.476562 C 31.703125 33.703125 31.730469 33.929688 31.734375 34.160156 C 31.738281 34.394531 31.71875 34.621094 31.675781 34.847656 C 31.628906 35.074219 31.5625 35.292969 31.472656 35.507812 C 31.378906 35.71875 31.265625 35.917969 31.132812 36.109375 C 31 36.296875 30.847656 36.46875 30.679688 36.625 C 30.507812 36.78125 30.324219 36.917969 30.125 37.035156 C 29.925781 37.152344 29.714844 37.246094 29.496094 37.320312 C 29.277344 37.394531 29.054688 37.441406 28.824219 37.46875 C 28.59375 37.492188 28.363281 37.492188 28.132812 37.46875 C 27.90625 37.445312 27.679688 37.398438 27.460938 37.328125 C 27.238281 37.257812 27.03125 37.164062 26.828125 37.050781 C 26.628906 36.933594 26.445312 36.796875 26.273438 36.644531 C 26.101562 36.488281 25.949219 36.316406 25.8125 36.132812 C 25.675781 35.945312 25.5625 35.746094 25.46875 35.53125 C 25.375 35.320312 25.308594 35.101562 25.261719 34.875 C 25.214844 34.648438 25.191406 34.421875 25.191406 34.191406 L 25.191406 30.808594 C 27.082031 30.289062 28.464844 28.011719 28.464844 25.191406 L 26.828125 25.191406 C 26.828125 26.933594 26.132812 28.445312 25.191406 29.023438 L 25.191406 14.558594 C 25.191406 14.125 25.277344 13.707031 25.441406 13.308594 C 25.609375 12.90625 25.84375 12.554688 26.152344 12.246094 C 26.457031 11.9375 26.8125 11.703125 27.210938 11.535156 C 27.613281 11.371094 28.03125 11.289062 28.464844 11.289062 C 28.898438 11.289062 29.316406 11.371094 29.71875 11.535156 C 30.117188 11.703125 30.472656 11.9375 30.777344 12.246094 C 31.085938 12.554688 31.320312 12.90625 31.488281 13.308594 C 31.652344 13.707031 31.738281 14.125 31.738281 14.558594 C 31.738281 14.59375 31.722656 14.636719 31.722656 14.671875 C 29.839844 15.199219 28.464844 17.476562 28.464844 20.285156 L 30.101562 20.285156 C 30.101562 18.226562 31.074219 16.480469 32.28125 16.242188 C 32.289062 16.242188 32.296875 16.253906 32.308594 16.253906 C 32.6875 16.320312 33.042969 16.449219 33.375 16.640625 C 33.707031 16.832031 33.996094 17.074219 34.242188 17.367188 C 34.492188 17.664062 34.679688 17.988281 34.8125 18.351562 C 34.941406 18.710938 35.007812 19.082031 35.007812 19.46875 Z M 35.007812 19.46875 " fill-opacity="1" fill-rule="nonzero"/><g clip-path="url(#id1)"><path fill="#000000" d="M 26.105469 44.753906 L 27.320312 43.84375 L 26.339844 42.535156 L 23.066406 44.988281 C 22.964844 45.066406 22.882812 45.160156 22.824219 45.277344 C 22.769531 45.390625 22.738281 45.511719 22.738281 45.640625 C 22.738281 45.769531 22.769531 45.890625 22.824219 46.007812 C 22.882812 46.121094 22.964844 46.21875 23.066406 46.296875 L 26.339844 48.75 L 27.320312 47.441406 L 25.921875 46.394531 C 36.550781 45.726562 44.890625 38.265625 46.453125 27.765625 L 44.835938 27.527344 C 43.382812 37.308594 35.953125 44.042969 26.105469 44.753906 Z M 26.105469 44.753906 " fill-opacity="1" fill-rule="nonzero"/></g><g clip-path="url(#id2)"><path fill="#000000" d="M 46.394531 22.828125 C 45.726562 12.199219 38.265625 3.859375 27.765625 2.296875 L 27.527344 3.914062 C 37.308594 5.367188 44.042969 12.796875 44.753906 22.644531 L 43.84375 21.429688 L 42.535156 22.410156 L 44.988281 25.683594 C 45.066406 25.785156 45.160156 25.867188 45.277344 25.925781 C 45.390625 25.980469 45.511719 26.011719 45.640625 26.011719 C 45.769531 26.011719 45.890625 25.980469 46.007812 25.925781 C 46.121094 25.867188 46.21875 25.785156 46.296875 25.683594 L 48.75 22.410156 L 47.441406 21.429688 Z M 46.394531 22.828125 " fill-opacity="1" fill-rule="nonzero"/></g><path fill="#000000" d="M 3.996094 26.105469 L 4.90625 27.320312 L 6.214844 26.339844 L 3.761719 23.066406 C 3.683594 22.96875 3.585938 22.890625 3.46875 22.839844 C 3.355469 22.785156 3.234375 22.757812 3.109375 22.757812 C 2.980469 22.757812 2.859375 22.785156 2.746094 22.839844 C 2.632812 22.890625 2.535156 22.96875 2.453125 23.066406 L 0 26.339844 L 1.308594 27.320312 L 2.355469 25.921875 C 3.023438 36.550781 10.484375 44.890625 20.984375 46.453125 L 21.222656 44.835938 C 11.441406 43.382812 4.707031 35.949219 3.996094 26.105469 Z M 3.996094 26.105469 " fill-opacity="1" fill-rule="nonzero"/></svg>