<svg xmlns="http://www.w3.org/2000/svg" xmlns:xlink="http://www.w3.org/1999/xlink" width="65" zoomAndPan="magnify" viewBox="0 0 48.75 48.749998" height="65" preserveAspectRatio="xMidYMid meet" version="1.0"><defs><clipPath id="id1"><path d="M 5 33 L 20 33 L 20 47.25 L 5 47.25 Z M 5 33 " clip-rule="nonzero"/></clipPath><clipPath id="id2"><path d="M 28 33 L 44 33 L 44 47.25 L 28 47.25 Z M 28 33 " clip-rule="nonzero"/></clipPath></defs><path stroke-linecap="round" transform="matrix(0.414189, 0, 0, 0.411738, -6.047152, -7.399442)" fill="none" stroke-linejoin="round" d="M 114.003691 23.502303 C 109.655958 20.238697 101.11139 20.57075 95.999739 24.498462 C 91.519971 27.989762 88.681213 32.685939 88.549178 38.50161 C 88.464298 42.922658 88.492591 47.191911 84.965363 50.502953 " stroke="#000000" stroke-width="4" stroke-opacity="1" stroke-miterlimit="4"/><g clip-path="url(#id1)"><path stroke-linecap="round" transform="matrix(0.414189, 0, 0, 0.411738, -6.047152, -7.399442)" fill="none" stroke-linejoin="round" d="M 60.001267 101.496802 C 56.851283 104.10579 55.455481 106.866573 55.766707 111.49634 C 56.530626 123.127682 46.231875 131.780033 33.499903 130.499258 C 31.990928 130.337975 30.500816 129.768741 30.000968 128.032578 " stroke="#000000" stroke-width="4" stroke-opacity="1" stroke-miterlimit="4"/></g><path stroke-linecap="round" transform="matrix(0.414189, 0, 0, 0.411738, -6.047152, -7.399442)" fill="none" stroke-linejoin="round" d="M 60.001267 50.00013 C 57.00218 47.704221 56.13452 45.085746 56.275986 40.996751 C 56.709816 29.460282 47.872885 20.523314 35.499294 20.997675 C 33.613076 21.130496 32.113532 21.965372 31.000664 23.502303 " stroke="#000000" stroke-width="4" stroke-opacity="1" stroke-miterlimit="4"/><g clip-path="url(#id2)"><path stroke-linecap="round" transform="matrix(0.414189, 0, 0, 0.411738, -6.047152, -7.399442)" fill="none" stroke-linejoin="round" d="M 85.502935 101.999625 C 87.747535 104.580151 89.020732 106.999395 88.700075 111.003005 C 87.700379 123.516658 101.224563 134.227738 112.95684 129.389252 C 115.050542 128.535402 116.672689 129.91105 118.502321 129.484124 " stroke="#000000" stroke-width="4" stroke-opacity="1" stroke-miterlimit="4"/></g><path stroke-linecap="round" transform="matrix(0.414189, 0, 0, 0.411738, -6.047152, -7.399442)" fill="none" stroke-linejoin="round" d="M 19.249525 32.002859 C 19.475871 35.323389 17.108668 37.941864 17.325583 41.509061 C 17.891448 50.692698 25.756978 59.126843 34.999446 59.506332 C 36.838509 59.591717 38.66814 59.828898 40.497772 59.999668 " stroke="#000000" stroke-width="4" stroke-opacity="1" stroke-miterlimit="4"/><path stroke-linecap="round" transform="matrix(0.414189, 0, 0, 0.411738, -6.047152, -7.399442)" fill="none" stroke-linejoin="round" d="M 104.497151 92.50291 C 109.646527 93.280863 114.927937 93.062657 119.502016 96.430623 C 126.424437 101.430392 129.272626 111.885317 124.953187 118.004579 " stroke="#000000" stroke-width="4" stroke-opacity="1" stroke-miterlimit="4"/><path stroke-linecap="round" transform="matrix(0.414189, 0, 0, 0.411738, -6.047152, -7.399442)" fill="none" stroke-linejoin="round" d="M 39.997924 91.497264 C 37.206321 92.33214 34.226097 91.497264 31.519374 92.085472 C 24.285727 93.764712 17.73112 101.819368 16.995495 109.504023 C 16.637113 111.695572 17.108668 113.697377 18.410158 115.499951 C 19.079765 116.363288 20.183203 117.501756 19.221232 118.953301 " stroke="#000000" stroke-width="4" stroke-opacity="1" stroke-miterlimit="4"/><path stroke-linecap="round" transform="matrix(0.414189, 0, 0, 0.411738, -6.047152, -7.399442)" fill="none" stroke-linejoin="round" d="M 125.50019 34.498 C 130.366632 43.947279 125.179533 54.497076 114.041415 58.595558 C 110.844275 59.781462 107.562256 58.823252 104.497151 59.999668 " stroke="#000000" stroke-width="4" stroke-opacity="1" stroke-miterlimit="4"/><path stroke-linecap="round" transform="matrix(0.414189, 0, 0, 0.411738, -6.047152, -7.399442)" fill="none" stroke-linejoin="round" d="M 27.501729 128.497453 C 32.396465 125.613335 36.027435 121.315621 39.394334 116.923035 C 40.893878 114.92123 37.857067 109.285816 34.961722 108.669147 C 33.594214 108.365555 32.43419 107.464269 30.859197 107.42632 C 26.907571 110.168129 24.512074 114.807383 20.004012 116.998933 " stroke="#000000" stroke-width="4" stroke-opacity="1" stroke-miterlimit="4"/><path stroke-linecap="round" transform="matrix(0.414189, 0, 0, 0.411738, -6.047152, -7.399442)" fill="none" stroke-linejoin="round" d="M 98.498978 81.497726 C 101.818722 78.281556 98.998826 74.496152 100.149419 71.061776 L 98.527271 70.05613 L 104.685773 65.853288 C 105.619451 60.47403 102.243121 58.386839 100.451214 55.559646 C 99.149723 53.481943 97.027728 53.861432 95.000043 54.563487 C 93.783433 55.018874 92.538529 55.123233 91.265332 54.876565 C 89.982703 54.629897 88.869835 54.070151 87.907863 53.187839 C 84.437222 50.455517 79.533055 49.38346 79.363295 43.56779 C 79.363295 42.571631 77.722286 41.101111 75.996396 41.082136 C 73.497157 41.082136 70.997918 40.901879 68.498679 41.082136 C 64.839416 41.37624 65.499593 44.734719 64.273551 46.907294 C 62.736283 49.620641 59.708903 51.726806 56.898438 53.368096 C 55.747845 54.041689 54.899047 55.369901 53.814472 55.635543 L 47.23157 53.453481 C 44.392812 54.516051 42.780096 57.257859 41.120224 59.620179 C 39.87532 61.365829 39.469783 64.970976 41.120224 65.8438 C 46.486514 68.699456 44.845505 73.291274 45.043557 77.541552 C 45.043557 78.537711 44.251346 79.723615 46.788309 80.539516 L 40.195977 85.766979 C 39.52637 91.098801 42.959286 93.356761 44.572003 96.459084 C 45.571698 98.46089 48.250128 98.043452 49.410152 97.350884 C 52.512981 95.529336 54.66327 97.009344 57.00218 98.508326 C 58.511155 99.513972 59.878663 100.851671 61.529103 101.411417 C 63.679392 102.151421 64.292413 103.337325 64.594208 105.490925 C 65.018607 108.659659 66.593599 111.363519 70.488639 110.490694 C 73.921556 109.68428 79.391589 113.41276 80.080058 106.050672 C 80.551613 100.95603 86.351733 101.136288 89.077319 98.052939 C 90.30336 96.686778 91.77461 96.278827 94.075796 97.322422 C 97.885957 99.011149 101.837584 96.316776 103.497456 92.000087 C 104.006735 90.671876 104.497151 89.353151 105.081879 87.996477 C 103.836975 85.548773 101.818722 83.841072 99.998521 82.000549 " stroke="#000000" stroke-width="4" stroke-opacity="1" stroke-miterlimit="4"/><path stroke-linecap="round" transform="matrix(0.414189, 0, 0, 0.411738, -6.047152, -7.399442)" fill="none" stroke-linejoin="round" d="M 125.745398 119.996897 C 122.670863 116.828162 119.19079 114.000969 116.606672 110.424284 C 114.220606 107.141703 111.862833 109.010687 109.523923 109.570433 C 107.175581 110.13018 105.44026 111.667111 105.515709 114.503792 C 105.449692 115.509438 105.298794 116.515084 105.053586 117.501756 " stroke="#000000" stroke-width="4" stroke-opacity="1" stroke-miterlimit="4"/><path stroke-linecap="round" transform="matrix(0.414189, 0, 0, 0.411738, -6.047152, -7.399442)" fill="none" stroke-linejoin="round" d="M 89.00187 79.002585 C 91.001261 68.31048 85.861317 60.682749 75.496548 59.003509 " stroke="#000000" stroke-width="4" stroke-opacity="1" stroke-miterlimit="4"/><path stroke-linecap="round" transform="matrix(0.414189, 0, 0, 0.411738, -6.047152, -7.399442)" fill="none" stroke-linejoin="round" d="M 20.004012 34.004664 C 23.691569 35.522621 25.587218 39.080331 28.491994 41.509061 C 30.670576 43.330609 35.98028 43.378045 37.998533 41.509061 C 40.016786 39.640077 39.997924 34.317743 37.998533 32.002859 C 35.697347 29.308486 32.547363 27.411041 30.944077 23.995639 C 30.038693 22.126655 28.011008 23.227173 26.492603 22.99948 " stroke="#000000" stroke-width="4" stroke-opacity="1" stroke-miterlimit="4"/><path stroke-linecap="round" transform="matrix(0.414189, 0, 0, 0.411738, -6.047152, -7.399442)" fill="none" stroke-linejoin="round" d="M 125.50019 31.500036 C 124.698547 35.826212 120.181055 36.850832 117.908162 39.943669 C 116.361463 42.049833 114.663867 44.459589 110.910293 43.102916 C 107.373634 41.793678 105.015861 40.095464 105.430829 35.996982 C 105.572296 34.611847 104.525445 34.450564 103.431438 34.498 " stroke="#000000" stroke-width="4" stroke-opacity="1" stroke-miterlimit="4"/><path stroke-linecap="round" transform="matrix(0.414189, 0, 0, 0.411738, -6.047152, -7.399442)" fill="none" stroke-linejoin="round" d="M 68.498679 59.496845 C 61.029256 60.341208 54.14456 69.420485 56.502332 79.495921 " stroke="#000000" stroke-width="4" stroke-opacity="1" stroke-miterlimit="4"/><path stroke-linecap="round" transform="matrix(0.414189, 0, 0, 0.411738, -6.047152, -7.399442)" fill="none" stroke-linejoin="round" d="M 60.501115 87.503141 C 67.753623 93.555993 75.260771 93.612916 83.003696 88.4993 " stroke="#000000" stroke-width="4" stroke-opacity="1" stroke-miterlimit="4"/><path stroke-linecap="round" transform="matrix(0.414189, 0, 0, 0.411738, -6.047152, -7.399442)" fill="none" stroke-linejoin="round" d="M 103.497456 117.501756 C 107.637705 120.556643 111.14607 124.218713 114.003691 128.497453 " stroke="#000000" stroke-width="4" stroke-opacity="1" stroke-miterlimit="4"/><path stroke-linecap="round" transform="matrix(0.414189, 0, 0, 0.411738, -6.047152, -7.399442)" fill="none" stroke-linejoin="round" d="M 118.502321 22.99948 C 116.50293 23.065891 114.805333 22.800248 113.296359 25.380774 C 111.296968 28.853099 107.826326 31.500036 104.996999 34.498 " stroke="#000000" stroke-width="4" stroke-opacity="1" stroke-miterlimit="4"/></svg>