<svg xmlns="http://www.w3.org/2000/svg" xmlns:xlink="http://www.w3.org/1999/xlink" width="50" zoomAndPan="magnify" viewBox="0 0 37.5 37.499999" height="50" preserveAspectRatio="xMidYMid meet" version="1.0"><defs><clipPath id="id1"><path d="M 0 0 L 37.007812 0 L 37.007812 37.007812 L 0 37.007812 Z M 0 0 " clip-rule="nonzero"/></clipPath></defs><g clip-path="url(#id1)"><path fill="#000000" d="M 19.539062 0 C 13.898438 0 9.3125 4.585938 9.3125 10.226562 L 9.3125 10.847656 L 8.691406 10.847656 C 5.78125 10.847656 3.175781 12.582031 2.089844 15.308594 C 1.90625 15.773438 2.125 16.332031 2.617188 16.519531 C 3.082031 16.703125 3.640625 16.488281 3.828125 15.992188 C 4.601562 14.007812 6.523438 12.707031 8.691406 12.707031 L 10.242188 12.707031 C 10.769531 12.707031 11.171875 12.304688 11.171875 11.777344 L 11.171875 10.226562 C 11.171875 5.609375 14.921875 1.859375 19.539062 1.859375 C 24.15625 1.859375 27.90625 5.609375 27.90625 10.226562 L 27.90625 11.777344 C 27.90625 12.304688 28.3125 12.707031 28.835938 12.707031 L 30.386719 12.707031 C 33.300781 12.707031 35.65625 15.0625 35.65625 17.976562 C 35.65625 19.371094 35.097656 20.703125 34.105469 21.695312 C 33.734375 22.066406 33.734375 22.65625 34.105469 22.996094 C 34.292969 23.179688 34.539062 23.273438 34.757812 23.273438 C 34.972656 23.273438 35.222656 23.179688 35.40625 22.996094 C 36.742188 21.664062 37.484375 19.867188 37.484375 17.945312 C 37.484375 14.007812 34.292969 10.816406 30.355469 10.816406 L 29.738281 10.816406 L 29.738281 10.195312 C 29.769531 4.585938 25.179688 0 19.539062 0 Z M 15.820312 17.046875 C 13.589844 17.046875 11.792969 18.84375 11.792969 21.074219 C 11.792969 23.304688 13.589844 25.101562 15.820312 25.101562 C 18.050781 25.101562 19.851562 23.304688 19.851562 21.074219 C 19.851562 18.84375 18.050781 17.046875 15.820312 17.046875 Z M 15.820312 18.90625 C 17.03125 18.90625 17.992188 19.867188 17.992188 21.074219 C 17.992188 22.28125 17.03125 23.242188 15.820312 23.242188 C 14.613281 23.242188 13.652344 22.28125 13.652344 21.074219 C 13.652344 19.867188 14.613281 18.90625 15.820312 18.90625 Z M 5.902344 20.144531 C 3.671875 20.144531 1.875 21.941406 1.875 24.171875 C 1.875 26.40625 3.671875 28.203125 5.902344 28.203125 C 8.136719 28.203125 9.933594 26.40625 9.933594 24.171875 C 9.933594 21.941406 8.136719 20.144531 5.902344 20.144531 Z M 25.738281 20.144531 C 23.507812 20.144531 21.710938 21.941406 21.710938 24.171875 C 21.710938 26.40625 23.507812 28.203125 25.738281 28.203125 C 27.96875 28.203125 29.765625 26.40625 29.765625 24.171875 C 29.765625 21.941406 27.96875 20.144531 25.738281 20.144531 Z M 5.902344 22.003906 C 7.113281 22.003906 8.074219 22.964844 8.074219 24.171875 C 8.074219 25.382812 7.113281 26.34375 5.902344 26.34375 C 4.695312 26.34375 3.734375 25.382812 3.734375 24.171875 C 3.734375 22.964844 4.695312 22.003906 5.902344 22.003906 Z M 25.738281 22.003906 C 26.949219 22.003906 27.90625 22.964844 27.90625 24.171875 C 27.90625 25.382812 26.949219 26.34375 25.738281 26.34375 C 24.53125 26.34375 23.570312 25.382812 23.570312 24.171875 C 23.570312 22.964844 24.53125 22.003906 25.738281 22.003906 Z M 15.917969 26.339844 C 15.8125 26.335938 15.710938 26.339844 15.605469 26.34375 C 12.414062 26.46875 9.933594 29.195312 9.933594 32.386719 L 9.933594 36.570312 C 9.933594 37.097656 10.335938 37.5 10.863281 37.5 C 11.390625 37.5 11.792969 37.097656 11.792969 36.570312 L 11.792969 32.355469 C 11.792969 30.1875 13.464844 28.328125 15.605469 28.203125 C 17.929688 28.078125 19.851562 29.9375 19.851562 32.230469 L 19.851562 36.570312 C 19.851562 37.097656 20.253906 37.5 20.78125 37.5 C 21.308594 37.5 21.710938 37.097656 21.710938 36.570312 L 21.710938 32.230469 C 21.710938 29.019531 19.121094 26.386719 15.917969 26.339844 Z M 5.875 29.441406 C 2.617188 29.472656 0.015625 32.109375 0.015625 35.332031 L 0.015625 36.570312 C 0.015625 37.097656 0.417969 37.5 0.945312 37.5 C 1.472656 37.5 1.875 37.097656 1.875 36.570312 L 1.875 35.332031 C 1.875 33.097656 3.671875 31.300781 5.902344 31.300781 C 6.460938 31.300781 6.925781 30.773438 6.832031 30.21875 C 6.742188 29.753906 6.339844 29.441406 5.875 29.441406 Z M 25.738281 29.441406 C 25.210938 29.441406 24.808594 29.84375 24.808594 30.371094 C 24.808594 30.898438 25.210938 31.300781 25.738281 31.300781 C 27.96875 31.300781 29.765625 33.097656 29.765625 35.332031 L 29.765625 36.570312 C 29.765625 37.097656 30.171875 37.5 30.699219 37.5 C 31.222656 37.5 31.628906 37.097656 31.628906 36.570312 L 31.628906 35.332031 C 31.628906 32.078125 28.992188 29.441406 25.738281 29.441406 Z M 25.738281 29.441406 " fill-opacity="1" fill-rule="nonzero"/></g></svg>