<svg xmlns="http://www.w3.org/2000/svg" xmlns:xlink="http://www.w3.org/1999/xlink" width="50" zoomAndPan="magnify" viewBox="0 0 37.5 37.499999" height="50" preserveAspectRatio="xMidYMid meet" version="1.0"><defs><clipPath id="id1"><path d="M 0 0 L 37.007812 0 L 37.007812 34.5 L 0 34.5 Z M 0 0 " clip-rule="nonzero"/></clipPath></defs><g clip-path="url(#id1)"><path fill="#000000" d="M 34.25 19.226562 C 34.054688 22.875 32.207031 26.3125 29.097656 28.789062 L 29.417969 31.515625 C 29.554688 32.695312 28.746094 33.765625 27.574219 33.960938 L 25.414062 34.316406 C 25.292969 34.335938 25.171875 34.347656 25.054688 34.347656 C 24.3125 34.347656 23.605469 33.972656 23.191406 33.34375 L 22.296875 31.976562 C 21.015625 32.257812 19.695312 32.414062 18.351562 32.414062 C 17.007812 32.414062 15.691406 32.257812 14.410156 31.972656 L 13.511719 33.34375 C 13.09375 33.976562 12.390625 34.347656 11.652344 34.347656 C 11.53125 34.347656 11.410156 34.335938 11.289062 34.316406 L 9.128906 33.960938 C 7.957031 33.765625 7.148438 32.691406 7.285156 31.515625 L 7.605469 28.789062 C 5.671875 27.25 4.203125 25.324219 3.335938 23.179688 L 1.527344 22.628906 C 0.613281 22.347656 0 21.519531 0 20.570312 L 0 16.613281 C 0 15.65625 0.613281 14.832031 1.53125 14.550781 L 3.167969 14.054688 C 3.886719 12.265625 5.089844 10.601562 6.6875 9.152344 C 6.542969 8.03125 5.847656 6.890625 5.273438 6.117188 C 4.941406 5.671875 4.890625 5.085938 5.140625 4.585938 C 5.386719 4.09375 5.875 3.785156 6.421875 3.78125 C 7.832031 3.78125 9.214844 4.167969 10.589844 4.976562 C 10.933594 5.175781 11.046875 5.617188 10.847656 5.960938 C 10.644531 6.300781 10.203125 6.414062 9.863281 6.214844 C 8.714844 5.542969 7.542969 5.210938 6.4375 5.214844 C 6.972656 5.980469 7.605469 7.011719 7.933594 8.125 C 7.992188 8.085938 8.042969 8.039062 8.097656 8 C 8.417969 7.765625 8.871094 7.835938 9.105469 8.15625 C 9.339844 8.476562 9.269531 8.925781 8.945312 9.160156 C 6.785156 10.734375 5.164062 12.765625 4.390625 14.882812 C 4.3125 15.097656 4.140625 15.257812 3.925781 15.324219 L 1.949219 15.925781 C 1.644531 16.019531 1.441406 16.292969 1.441406 16.613281 L 1.441406 20.570312 C 1.441406 20.886719 1.644531 21.164062 1.949219 21.253906 L 4.09375 21.910156 C 4.304688 21.976562 4.476562 22.136719 4.554688 22.347656 C 5.351562 24.488281 6.820312 26.40625 8.804688 27.898438 C 9.007812 28.050781 9.113281 28.300781 9.085938 28.554688 L 8.714844 31.683594 C 8.667969 32.097656 8.953125 32.476562 9.363281 32.542969 L 11.523438 32.898438 C 11.828125 32.949219 12.136719 32.816406 12.304688 32.554688 L 12.945312 31.582031 C 12.8125 31.542969 12.679688 31.511719 12.550781 31.464844 C 12.171875 31.339844 11.972656 30.929688 12.101562 30.554688 C 12.226562 30.179688 12.636719 29.976562 13.011719 30.105469 C 16.414062 31.261719 20.296875 31.261719 23.691406 30.105469 C 24.066406 29.980469 24.476562 30.179688 24.605469 30.554688 C 24.734375 30.929688 24.53125 31.335938 24.15625 31.464844 C 24.027344 31.511719 23.890625 31.542969 23.761719 31.582031 L 24.398438 32.554688 C 24.566406 32.816406 24.875 32.949219 25.179688 32.898438 L 27.339844 32.542969 C 27.753906 32.476562 28.039062 32.097656 27.988281 31.683594 L 27.621094 28.550781 C 27.59375 28.296875 27.699219 28.050781 27.902344 27.894531 C 31.035156 25.539062 32.828125 22.144531 32.828125 18.582031 C 32.828125 14.328125 30.324219 10.417969 26.125 8.121094 C 25.773438 7.933594 25.648438 7.496094 25.839844 7.148438 C 26.027344 6.800781 26.46875 6.671875 26.816406 6.863281 C 31.21875 9.269531 33.945312 13.304688 34.238281 17.773438 C 35.296875 17.484375 36.074219 16.507812 36.074219 15.378906 C 36.074219 14.488281 35.589844 13.660156 34.816406 13.214844 C 34.46875 13.019531 34.347656 12.582031 34.546875 12.238281 C 34.742188 11.894531 35.183594 11.773438 35.527344 11.96875 C 36.753906 12.667969 37.515625 13.972656 37.515625 15.378906 C 37.511719 17.285156 36.101562 18.902344 34.25 19.226562 Z M 11.300781 14.636719 C 11.300781 13.503906 10.371094 12.578125 9.230469 12.578125 C 8.089844 12.578125 7.164062 13.503906 7.164062 14.636719 C 7.164062 15.777344 8.089844 16.699219 9.230469 16.699219 C 10.371094 16.699219 11.300781 15.777344 11.300781 14.636719 Z M 9.859375 14.636719 C 9.859375 14.984375 9.578125 15.265625 9.230469 15.265625 C 8.886719 15.265625 8.601562 14.984375 8.601562 14.636719 C 8.601562 14.292969 8.886719 14.011719 9.230469 14.011719 C 9.578125 14.011719 9.859375 14.292969 9.859375 14.636719 Z M 18.296875 4.117188 C 18.695312 4.101562 19.011719 4.265625 19.25 4.601562 C 19.476562 4.925781 19.925781 5.003906 20.253906 4.773438 C 20.578125 4.542969 20.65625 4.097656 20.425781 3.773438 C 20.074219 3.277344 19.601562 2.957031 19.054688 2.796875 C 19.015625 2.4375 18.722656 2.15625 18.351562 2.15625 C 17.992188 2.15625 17.707031 2.425781 17.652344 2.769531 C 17.179688 2.886719 16.761719 3.121094 16.425781 3.476562 C 16.03125 3.898438 15.851562 4.488281 15.949219 5.054688 C 16.039062 5.601562 16.371094 6.058594 16.855469 6.3125 C 17.222656 6.503906 17.722656 6.628906 18.304688 6.664062 C 18.847656 6.699219 19.109375 6.816406 19.175781 6.851562 C 19.285156 6.910156 19.398438 6.933594 19.511719 6.933594 C 19.769531 6.933594 20.019531 6.796875 20.148438 6.550781 C 20.335938 6.199219 20.199219 5.765625 19.847656 5.582031 C 19.480469 5.390625 18.980469 5.269531 18.398438 5.230469 C 17.855469 5.195312 17.59375 5.078125 17.527344 5.042969 C 17.417969 4.984375 17.378906 4.886719 17.367188 4.8125 C 17.347656 4.6875 17.386719 4.554688 17.476562 4.457031 C 17.6875 4.238281 17.953125 4.125 18.296875 4.117188 Z M 13.464844 7.613281 C 13.855469 7.539062 14.109375 7.164062 14.035156 6.773438 C 13.984375 6.503906 13.957031 6.226562 13.957031 5.949219 C 13.957031 3.53125 15.929688 1.566406 18.351562 1.566406 C 20.773438 1.566406 22.746094 3.53125 22.746094 5.949219 C 22.746094 6.222656 22.71875 6.503906 22.667969 6.777344 C 22.59375 7.164062 22.851562 7.539062 23.242188 7.613281 C 23.632812 7.691406 24.007812 7.433594 24.082031 7.042969 C 24.152344 6.679688 24.1875 6.3125 24.1875 5.949219 C 24.1875 2.738281 21.570312 0.128906 18.351562 0.128906 C 15.136719 0.128906 12.519531 2.738281 12.519531 5.949219 C 12.519531 6.316406 12.554688 6.683594 12.621094 7.042969 C 12.6875 7.386719 12.992188 7.625 13.328125 7.625 C 13.371094 7.628906 13.417969 7.625 13.464844 7.613281 Z M 24.835938 10.203125 C 25.035156 9.859375 24.917969 9.421875 24.570312 9.226562 C 22.636719 8.117188 20.386719 7.535156 18.066406 7.535156 C 15.992188 7.535156 13.953125 8.007812 12.167969 8.898438 C 11.8125 9.078125 11.667969 9.507812 11.847656 9.863281 C 12.023438 10.21875 12.457031 10.359375 12.8125 10.183594 C 14.398438 9.390625 16.214844 8.96875 18.066406 8.96875 C 20.136719 8.96875 22.140625 9.488281 23.855469 10.46875 C 23.96875 10.535156 24.089844 10.566406 24.210938 10.566406 C 24.460938 10.566406 24.703125 10.4375 24.835938 10.203125 Z M 24.835938 10.203125 " fill-opacity="1" fill-rule="nonzero"/></g></svg>