<svg xmlns="http://www.w3.org/2000/svg" xmlns:xlink="http://www.w3.org/1999/xlink" width="50" zoomAndPan="magnify" viewBox="0 0 37.5 37.499999" height="50" preserveAspectRatio="xMidYMid meet" version="1.0"><defs><clipPath id="id1"><path d="M 0 0 L 36 0 L 36 37.007812 L 0 37.007812 Z M 0 0 " clip-rule="nonzero"/></clipPath></defs><g clip-path="url(#id1)"><path fill="#000000" d="M 13.941406 0.230469 C 9.660156 0.230469 7.121094 2.546875 6.289062 4.617188 C 4.066406 5.039062 2.074219 6.542969 1.0625 8.863281 C 0.0195312 11.25 0.0507812 14.445312 1.679688 18.042969 C 0.761719 19.261719 0.230469 20.816406 0.492188 22.398438 C 0.75 23.960938 1.828125 25.425781 3.679688 26.296875 C 2.957031 28.039062 3.210938 29.742188 4.167969 30.941406 C 5.167969 32.195312 6.777344 32.871094 8.464844 33 C 8.976562 34.300781 9.902344 35.171875 10.910156 35.539062 C 12.0625 35.960938 13.226562 35.949219 13.941406 35.949219 C 15.101562 35.949219 16.117188 35.410156 16.78125 34.570312 C 17.433594 35.40625 18.449219 35.941406 19.640625 35.953125 L 19.667969 35.953125 C 20.375 35.953125 21.527344 35.765625 22.632812 35.199219 C 22.027344 34.925781 21.460938 34.585938 20.9375 34.1875 C 20.425781 34.328125 19.957031 34.386719 19.652344 34.398438 C 18.429688 34.386719 17.574219 33.535156 17.574219 32.324219 L 17.574219 5.03125 C 17.574219 1.785156 18.582031 1.78125 19.648438 1.78125 C 23.523438 1.78125 25.621094 4.058594 26.035156 5.492188 L 26.175781 5.984375 L 26.6875 6.046875 C 28.351562 6.25 29.796875 7.257812 30.648438 8.8125 C 31.929688 11.15625 31.734375 14.3125 30.109375 17.707031 C 29.980469 17.886719 29.457031 18.582031 28.675781 19.257812 C 29.222656 19.429688 29.746094 19.652344 30.242188 19.925781 C 30.449219 19.722656 30.632812 19.523438 30.789062 19.347656 C 31.042969 19.746094 31.234375 20.199219 31.355469 20.667969 C 31.988281 21.160156 32.550781 21.734375 33.023438 22.382812 C 33.238281 20.765625 32.65625 19.117188 31.710938 17.953125 C 33.375 14.25 33.484375 10.757812 32.011719 8.070312 C 31 6.21875 29.320312 4.96875 27.355469 4.585938 C 26.550781 2.679688 24.03125 0.230469 19.648438 0.230469 C 18.300781 0.230469 17.371094 0.617188 16.789062 1.46875 C 16.757812 1.425781 16.730469 1.378906 16.699219 1.335938 C 16.042969 0.5 15.007812 0.230469 13.941406 0.230469 Z M 13.941406 1.78125 C 14.789062 1.78125 15.179688 1.917969 15.472656 2.292969 C 15.765625 2.664062 16.015625 3.5 16.015625 5.03125 C 16.015625 5.03125 16.015625 5.035156 16.015625 5.035156 L 16.015625 32.328125 C 16.015625 33.59375 15.183594 34.398438 13.941406 34.398438 C 13.234375 34.398438 12.257812 34.378906 11.445312 34.082031 C 10.636719 33.785156 10.003906 33.316406 9.707031 32.140625 L 9.5625 31.546875 L 8.957031 31.546875 C 7.53125 31.546875 6.132812 30.910156 5.386719 29.972656 C 4.636719 29.039062 4.410156 27.878906 5.347656 26.320312 L 5.84375 25.488281 L 4.921875 25.183594 C 3.007812 24.546875 2.234375 23.398438 2.027344 22.148438 C 1.820312 20.90625 2.277344 19.523438 3.085938 18.636719 C 3.09375 18.625 3.105469 18.609375 3.117188 18.597656 L 3.457031 18.226562 L 3.453125 18.21875 C 4.003906 17.644531 5.253906 16.535156 6.6875 16.535156 C 8.113281 16.535156 9.152344 16.890625 9.839844 17.230469 C 10.523438 17.574219 10.800781 17.863281 10.800781 17.863281 C 10.953125 18.019531 11.136719 18.097656 11.355469 18.101562 C 11.574219 18.101562 11.757812 18.027344 11.914062 17.875 C 12.066406 17.71875 12.144531 17.535156 12.140625 17.316406 C 12.136719 17.097656 12.058594 16.914062 11.902344 16.765625 C 11.902344 16.765625 11.402344 16.277344 10.535156 15.84375 C 9.664062 15.40625 8.371094 14.984375 6.6875 14.984375 C 4.9375 14.984375 3.585938 15.925781 2.765625 16.683594 C 1.59375 13.722656 1.707031 11.273438 2.488281 9.484375 C 3.359375 7.484375 5.0625 6.273438 6.902344 6.046875 L 7.414062 5.984375 L 7.554688 5.492188 C 7.929688 4.1875 9.96875 1.78125 13.941406 1.78125 Z M 12.117188 7.207031 C 11.902344 7.210938 11.722656 7.289062 11.570312 7.445312 C 11.421875 7.597656 11.347656 7.78125 11.351562 7.996094 C 11.351562 8.234375 11.28125 8.847656 10.902344 9.34375 C 10.527344 9.835938 9.847656 10.324219 8.242188 10.324219 C 8.023438 10.320312 7.839844 10.394531 7.683594 10.546875 C 7.53125 10.699219 7.453125 10.882812 7.453125 11.101562 C 7.453125 11.316406 7.53125 11.503906 7.683594 11.652344 C 7.839844 11.804688 8.023438 11.878906 8.242188 11.878906 C 10.199219 11.878906 11.464844 11.167969 12.140625 10.285156 C 12.816406 9.40625 12.90625 8.46875 12.90625 7.996094 C 12.910156 7.777344 12.835938 7.589844 12.679688 7.433594 C 12.523438 7.28125 12.335938 7.203125 12.117188 7.207031 Z M 22.226562 8.761719 C 22.011719 8.765625 21.828125 8.84375 21.679688 8.996094 C 21.53125 9.148438 21.457031 9.335938 21.460938 9.546875 C 21.460938 10.472656 21.828125 11.632812 22.816406 12.582031 C 23.804688 13.53125 25.394531 14.207031 27.679688 14.207031 C 27.898438 14.210938 28.082031 14.136719 28.238281 13.984375 C 28.390625 13.832031 28.46875 13.648438 28.46875 13.429688 C 28.46875 13.214844 28.390625 13.03125 28.238281 12.878906 C 28.082031 12.726562 27.898438 12.652344 27.679688 12.652344 C 25.691406 12.652344 24.558594 12.101562 23.894531 11.464844 C 23.230469 10.828125 23.015625 10.046875 23.015625 9.546875 C 23.019531 9.328125 22.941406 9.140625 22.785156 8.988281 C 22.632812 8.832031 22.445312 8.757812 22.226562 8.761719 Z M 26.125 20.417969 C 22.269531 20.417969 19.128906 23.558594 19.128906 27.410156 C 19.128906 31.257812 22.269531 34.398438 26.125 34.398438 C 27.773438 34.398438 29.289062 33.820312 30.488281 32.863281 L 34.90625 37.277344 L 36.003906 36.175781 L 31.585938 31.765625 C 32.546875 30.566406 33.125 29.054688 33.125 27.410156 C 33.125 23.558594 29.980469 20.417969 26.125 20.417969 Z M 6.660156 21.972656 C 6.457031 21.976562 6.285156 22.046875 6.140625 22.1875 C 5.992188 22.328125 5.914062 22.496094 5.902344 22.695312 C 5.886719 22.898438 5.945312 23.078125 6.070312 23.234375 C 6.199219 23.390625 6.359375 23.484375 6.558594 23.515625 C 8.472656 23.832031 9.394531 24.8125 9.941406 25.832031 C 10.484375 26.851562 10.574219 27.96875 10.574219 28.183594 C 10.570312 28.402344 10.644531 28.585938 10.796875 28.742188 C 10.949219 28.894531 11.136719 28.972656 11.351562 28.972656 C 11.570312 28.972656 11.753906 28.894531 11.90625 28.742188 C 12.058594 28.585938 12.132812 28.402344 12.128906 28.183594 C 12.128906 27.691406 12.027344 26.445312 11.3125 25.101562 C 10.597656 23.757812 9.1875 22.378906 6.8125 21.984375 C 6.761719 21.972656 6.710938 21.96875 6.660156 21.972656 Z M 26.125 21.972656 C 29.140625 21.972656 31.566406 24.398438 31.566406 27.410156 C 31.566406 30.417969 29.140625 32.84375 26.125 32.84375 C 23.109375 32.84375 20.683594 30.417969 20.683594 27.410156 C 20.683594 24.398438 23.109375 21.972656 26.125 21.972656 Z M 26.125 21.972656 " fill-opacity="1" fill-rule="nonzero"/></g></svg>