<svg xmlns="http://www.w3.org/2000/svg" xmlns:xlink="http://www.w3.org/1999/xlink" width="50" zoomAndPan="magnify" viewBox="0 0 37.5 37.499999" height="50" preserveAspectRatio="xMidYMid meet" version="1.0"><defs><clipPath id="id1"><path d="M 0 0 L 37.007812 0 L 37.007812 32.25 L 0 32.25 Z M 0 0 " clip-rule="nonzero"/></clipPath></defs><g clip-path="url(#id1)"><path fill="#000000" d="M 29.835938 0 C 25.628906 0 22.191406 3.457031 22.191406 7.679688 C 22.191406 11.902344 25.628906 15.355469 29.835938 15.355469 C 34.039062 15.355469 37.480469 11.902344 37.480469 7.679688 C 37.480469 3.457031 34.039062 0 29.835938 0 Z M 29.835938 1.535156 C 33.199219 1.535156 35.953125 4.300781 35.953125 7.679688 C 35.953125 11.058594 33.199219 13.820312 29.835938 13.820312 C 26.472656 13.820312 23.71875 11.058594 23.71875 7.679688 C 23.71875 4.300781 26.472656 1.535156 29.835938 1.535156 Z M 33.125 4.148438 L 28.996094 8.984375 L 26.472656 7.0625 L 25.554688 8.292969 L 29.148438 11.058594 L 34.269531 5.144531 Z M 5.371094 6.144531 C 3.683594 6.144531 2.3125 7.519531 2.3125 9.214844 L 2.3125 26.105469 C 2.3125 26.667969 2.476562 27.1875 2.738281 27.644531 L 0.785156 27.644531 C 0.574219 27.644531 0.394531 27.71875 0.242188 27.867188 C 0.09375 28.019531 0.0195312 28.199219 0.0195312 28.410156 C 0.0195312 30.523438 1.738281 32.25 3.84375 32.25 L 32.894531 32.25 C 34.996094 32.25 36.714844 30.523438 36.714844 28.410156 C 36.714844 28.199219 36.640625 28.019531 36.492188 27.867188 C 36.34375 27.71875 36.164062 27.644531 35.953125 27.644531 L 33.996094 27.644531 C 34.261719 27.1875 34.421875 26.667969 34.421875 26.105469 L 34.421875 15.648438 C 33.9375 15.929688 33.429688 16.167969 32.894531 16.359375 L 32.894531 26.105469 C 32.894531 26.953125 32.207031 27.644531 31.363281 27.644531 L 5.371094 27.644531 C 4.527344 27.644531 3.84375 26.953125 3.84375 26.105469 L 3.84375 9.214844 C 3.84375 8.367188 4.527344 7.679688 5.371094 7.679688 L 20.660156 7.679688 C 20.660156 7.152344 20.714844 6.644531 20.796875 6.144531 Z M 1.863281 29.179688 L 34.871094 29.179688 C 34.539062 30.03125 33.867188 30.714844 32.894531 30.714844 L 3.84375 30.714844 C 2.867188 30.714844 2.199219 30.03125 1.863281 29.179688 Z M 1.863281 29.179688 " fill-opacity="1" fill-rule="nonzero"/></g></svg>