<svg xmlns="http://www.w3.org/2000/svg" xmlns:xlink="http://www.w3.org/1999/xlink" width="60" zoomAndPan="magnify" viewBox="0 0 45 44.999999" height="60" preserveAspectRatio="xMidYMid meet" version="1.0"><defs><clipPath id="id1"><path d="M 1.160156 1.160156 L 43.910156 1.160156 L 43.910156 43.910156 L 1.160156 43.910156 Z M 1.160156 1.160156 " clip-rule="nonzero"/></clipPath></defs><g clip-path="url(#id1)"><path fill="#000000" d="M 43.90625 22.53125 C 43.90625 34.335938 34.335938 43.90625 22.53125 43.90625 C 10.726562 43.90625 1.15625 34.335938 1.15625 22.53125 C 1.15625 10.726562 10.726562 1.15625 22.53125 1.15625 C 34.335938 1.15625 43.90625 10.726562 43.90625 22.53125 Z M 43.90625 22.53125 " fill-opacity="1" fill-rule="nonzero"/></g><path fill="#ffffff" d="M 14.460938 11.886719 L 31.03125 11.886719 C 32.605469 11.886719 33.894531 13.171875 33.894531 14.746094 L 33.894531 31.316406 C 33.894531 32.890625 32.605469 34.179688 31.03125 34.179688 L 14.460938 34.179688 C 12.886719 34.179688 11.597656 32.890625 11.597656 31.316406 L 11.597656 14.746094 C 11.597656 13.171875 12.886719 11.886719 14.460938 11.886719 Z M 27.839844 14.359375 C 27.289062 14.359375 26.835938 14.8125 26.835938 15.367188 L 26.835938 17.765625 C 26.835938 18.320312 27.289062 18.773438 27.839844 18.773438 L 30.359375 18.773438 C 30.910156 18.773438 31.363281 18.320312 31.363281 17.765625 L 31.363281 15.367188 C 31.363281 14.8125 30.910156 14.359375 30.359375 14.359375 Z M 31.375 21.3125 L 29.410156 21.3125 C 29.597656 21.921875 29.699219 22.558594 29.699219 23.226562 C 29.699219 26.933594 26.59375 29.941406 22.765625 29.941406 C 18.941406 29.941406 15.835938 26.933594 15.835938 23.226562 C 15.835938 22.558594 15.9375 21.921875 16.125 21.3125 L 14.078125 21.3125 L 14.078125 30.730469 C 14.078125 31.21875 14.476562 31.613281 14.960938 31.613281 L 30.488281 31.613281 C 30.976562 31.613281 31.375 31.21875 31.375 30.730469 Z M 22.765625 18.644531 C 20.296875 18.644531 18.289062 20.585938 18.289062 22.984375 C 18.289062 25.378906 20.296875 27.324219 22.765625 27.324219 C 25.238281 27.324219 27.246094 25.378906 27.246094 22.984375 C 27.246094 20.585938 25.238281 18.644531 22.765625 18.644531 Z M 22.765625 18.644531 " fill-opacity="1" fill-rule="nonzero"/></svg>