<svg xmlns="http://www.w3.org/2000/svg" xmlns:xlink="http://www.w3.org/1999/xlink" width="60" zoomAndPan="magnify" viewBox="0 0 45 44.999999" height="60" preserveAspectRatio="xMidYMid meet" version="1.0"><defs><clipPath id="id1"><path d="M 0.859375 0.859375 L 44.359375 0.859375 L 44.359375 44.359375 L 0.859375 44.359375 Z M 0.859375 0.859375 " clip-rule="nonzero"/></clipPath></defs><g clip-path="url(#id1)"><path fill="#000000" d="M 44.363281 22.609375 C 44.363281 23.324219 44.328125 24.03125 44.257812 24.742188 C 44.1875 25.449219 44.082031 26.15625 43.945312 26.851562 C 43.804688 27.550781 43.632812 28.242188 43.425781 28.921875 C 43.21875 29.605469 42.980469 30.273438 42.707031 30.933594 C 42.433594 31.589844 42.128906 32.234375 41.792969 32.863281 C 41.457031 33.492188 41.089844 34.101562 40.695312 34.695312 C 40.300781 35.285156 39.875 35.859375 39.425781 36.410156 C 38.972656 36.957031 38.496094 37.484375 37.992188 37.988281 C 37.488281 38.492188 36.960938 38.972656 36.410156 39.421875 C 35.859375 39.875 35.289062 40.300781 34.695312 40.695312 C 34.101562 41.089844 33.492188 41.457031 32.863281 41.792969 C 32.234375 42.128906 31.59375 42.433594 30.933594 42.703125 C 30.277344 42.976562 29.605469 43.21875 28.925781 43.421875 C 28.242188 43.628906 27.554688 43.804688 26.855469 43.941406 C 26.15625 44.082031 25.453125 44.1875 24.742188 44.253906 C 24.035156 44.324219 23.324219 44.359375 22.613281 44.359375 C 21.898438 44.359375 21.1875 44.324219 20.480469 44.253906 C 19.769531 44.1875 19.066406 44.082031 18.367188 43.941406 C 17.667969 43.804688 16.980469 43.628906 16.296875 43.421875 C 15.617188 43.21875 14.945312 42.976562 14.289062 42.703125 C 13.628906 42.433594 12.988281 42.128906 12.359375 41.792969 C 11.730469 41.457031 11.121094 41.089844 10.527344 40.695312 C 9.933594 40.300781 9.363281 39.875 8.8125 39.421875 C 8.261719 38.972656 7.734375 38.492188 7.230469 37.988281 C 6.726562 37.484375 6.25 36.957031 5.796875 36.410156 C 5.347656 35.859375 4.921875 35.285156 4.527344 34.695312 C 4.132812 34.101562 3.765625 33.492188 3.429688 32.863281 C 3.09375 32.234375 2.789062 31.589844 2.515625 30.933594 C 2.246094 30.273438 2.003906 29.605469 1.796875 28.921875 C 1.589844 28.242188 1.417969 27.550781 1.277344 26.851562 C 1.140625 26.15625 1.035156 25.449219 0.964844 24.742188 C 0.894531 24.03125 0.859375 23.324219 0.859375 22.609375 C 0.859375 21.898438 0.894531 21.1875 0.964844 20.476562 C 1.035156 19.769531 1.140625 19.066406 1.277344 18.367188 C 1.417969 17.667969 1.589844 16.976562 1.796875 16.296875 C 2.003906 15.613281 2.246094 14.945312 2.515625 14.285156 C 2.789062 13.628906 3.09375 12.984375 3.429688 12.355469 C 3.765625 11.730469 4.132812 11.117188 4.527344 10.527344 C 4.921875 9.933594 5.347656 9.363281 5.796875 8.8125 C 6.25 8.261719 6.726562 7.734375 7.230469 7.230469 C 7.734375 6.726562 8.261719 6.25 8.8125 5.796875 C 9.363281 5.34375 9.933594 4.921875 10.527344 4.527344 C 11.121094 4.128906 11.730469 3.765625 12.359375 3.429688 C 12.988281 3.09375 13.628906 2.789062 14.289062 2.515625 C 14.945312 2.242188 15.617188 2.003906 16.296875 1.796875 C 16.980469 1.589844 17.667969 1.417969 18.367188 1.277344 C 19.066406 1.140625 19.769531 1.035156 20.480469 0.964844 C 21.1875 0.894531 21.898438 0.859375 22.613281 0.859375 C 23.324219 0.859375 24.035156 0.894531 24.742188 0.964844 C 25.453125 1.035156 26.15625 1.140625 26.855469 1.277344 C 27.554688 1.417969 28.242188 1.589844 28.925781 1.796875 C 29.605469 2.003906 30.277344 2.242188 30.933594 2.515625 C 31.59375 2.789062 32.234375 3.09375 32.863281 3.429688 C 33.492188 3.765625 34.101562 4.128906 34.695312 4.527344 C 35.289062 4.921875 35.859375 5.34375 36.410156 5.796875 C 36.960938 6.25 37.488281 6.726562 37.992188 7.230469 C 38.496094 7.734375 38.972656 8.261719 39.425781 8.8125 C 39.875 9.363281 40.300781 9.933594 40.695312 10.527344 C 41.089844 11.117188 41.457031 11.730469 41.792969 12.355469 C 42.128906 12.984375 42.433594 13.628906 42.707031 14.285156 C 42.980469 14.945312 43.21875 15.613281 43.425781 16.296875 C 43.632812 16.976562 43.804688 17.667969 43.945312 18.367188 C 44.082031 19.066406 44.1875 19.769531 44.257812 20.476562 C 44.328125 21.1875 44.363281 21.898438 44.363281 22.609375 Z M 44.363281 22.609375 " fill-opacity="1" fill-rule="nonzero"/></g><path fill="#ffffff" d="M 28.070312 23.730469 L 28.6875 18.960938 L 23.964844 18.960938 L 23.964844 15.917969 C 23.964844 14.535156 24.347656 13.59375 26.328125 13.59375 L 28.851562 13.59375 L 28.851562 9.328125 C 28.414062 9.269531 26.917969 9.140625 25.171875 9.140625 C 21.53125 9.140625 19.039062 11.363281 19.039062 15.445312 L 19.039062 18.960938 L 14.921875 18.960938 L 14.921875 23.730469 L 19.039062 23.730469 L 19.039062 35.964844 L 23.964844 35.964844 L 23.964844 23.730469 Z M 28.070312 23.730469 " fill-opacity="1" fill-rule="nonzero"/></svg>