<svg xmlns="http://www.w3.org/2000/svg" xmlns:xlink="http://www.w3.org/1999/xlink" width="60" zoomAndPan="magnify" viewBox="0 0 45 44.999999" height="60" preserveAspectRatio="xMidYMid meet" version="1.0"><defs><clipPath id="id1"><path d="M 0.972656 0.972656 L 43.722656 0.972656 L 43.722656 43.722656 L 0.972656 43.722656 Z M 0.972656 0.972656 " clip-rule="nonzero"/></clipPath></defs><g clip-path="url(#id1)"><path fill="#000000" d="M 43.71875 22.34375 C 43.71875 34.148438 34.148438 43.71875 22.34375 43.71875 C 10.539062 43.71875 0.96875 34.148438 0.96875 22.34375 C 0.96875 10.539062 10.539062 0.96875 22.34375 0.96875 C 34.148438 0.96875 43.71875 10.539062 43.71875 22.34375 Z M 43.71875 22.34375 " fill-opacity="1" fill-rule="nonzero"/></g><path fill="#ffffff" d="M 36.375 23.296875 C 36.375 25.484375 36.371094 27.804688 35.882812 29.929688 C 35.539062 31.417969 34.316406 32.519531 32.847656 32.6875 C 29.371094 33.074219 25.847656 33.074219 22.34375 33.074219 C 18.835938 33.074219 15.316406 33.074219 11.835938 32.6875 C 10.367188 32.519531 9.148438 31.417969 8.804688 29.929688 C 8.316406 27.804688 8.316406 25.484375 8.316406 23.296875 C 8.316406 21.105469 8.320312 18.789062 8.8125 16.664062 C 9.152344 15.171875 10.375 14.070312 11.84375 13.90625 C 15.320312 13.519531 18.84375 13.515625 22.347656 13.519531 C 25.855469 13.515625 29.375 13.519531 32.855469 13.90625 C 34.324219 14.070312 35.546875 15.171875 35.886719 16.664062 C 36.375 18.789062 36.375 21.105469 36.375 23.296875 Z M 36.375 23.296875 " fill-opacity="1" fill-rule="nonzero"/><path fill="#000000" d="M 19.390625 18.074219 L 19.390625 28.566406 L 27.542969 23.320312 Z M 19.390625 18.074219 " fill-opacity="1" fill-rule="nonzero"/></svg>