<svg xmlns="http://www.w3.org/2000/svg" xmlns:xlink="http://www.w3.org/1999/xlink" width="60" zoomAndPan="magnify" viewBox="0 0 45 44.999999" height="60" preserveAspectRatio="xMidYMid meet" version="1.0"><defs><clipPath id="id1"><path d="M 1.167969 1.167969 L 43.917969 1.167969 L 43.917969 43.917969 L 1.167969 43.917969 Z M 1.167969 1.167969 " clip-rule="nonzero"/></clipPath></defs><g clip-path="url(#id1)"><path fill="#000000" d="M 43.917969 22.542969 C 43.917969 23.242188 43.882812 23.941406 43.816406 24.636719 C 43.746094 25.335938 43.644531 26.027344 43.507812 26.710938 C 43.371094 27.398438 43.199219 28.078125 42.996094 28.746094 C 42.792969 29.417969 42.558594 30.074219 42.289062 30.722656 C 42.023438 31.371094 41.722656 32 41.394531 32.617188 C 41.0625 33.234375 40.703125 33.835938 40.316406 34.417969 C 39.925781 35 39.507812 35.5625 39.066406 36.101562 C 38.621094 36.644531 38.152344 37.160156 37.65625 37.65625 C 37.160156 38.152344 36.644531 38.621094 36.101562 39.066406 C 35.5625 39.511719 35 39.925781 34.417969 40.316406 C 33.835938 40.703125 33.234375 41.0625 32.617188 41.394531 C 32 41.722656 31.367188 42.023438 30.722656 42.289062 C 30.074219 42.558594 29.417969 42.792969 28.746094 42.996094 C 28.078125 43.199219 27.398438 43.371094 26.710938 43.507812 C 26.027344 43.644531 25.335938 43.746094 24.636719 43.816406 C 23.941406 43.882812 23.242188 43.917969 22.542969 43.917969 C 21.84375 43.917969 21.144531 43.882812 20.445312 43.816406 C 19.75 43.746094 19.058594 43.644531 18.371094 43.507812 C 17.6875 43.371094 17.007812 43.199219 16.335938 42.996094 C 15.667969 42.792969 15.007812 42.558594 14.363281 42.289062 C 13.714844 42.023438 13.082031 41.722656 12.464844 41.394531 C 11.847656 41.0625 11.25 40.703125 10.667969 40.316406 C 10.085938 39.925781 9.523438 39.511719 8.980469 39.066406 C 8.441406 38.621094 7.921875 38.152344 7.429688 37.65625 C 6.933594 37.160156 6.464844 36.644531 6.019531 36.101562 C 5.574219 35.5625 5.160156 35 4.769531 34.417969 C 4.378906 33.835938 4.019531 33.234375 3.691406 32.617188 C 3.359375 32 3.0625 31.371094 2.792969 30.722656 C 2.527344 30.074219 2.289062 29.417969 2.085938 28.746094 C 1.882812 28.078125 1.714844 27.398438 1.578125 26.710938 C 1.441406 26.027344 1.339844 25.335938 1.269531 24.636719 C 1.203125 23.941406 1.167969 23.242188 1.167969 22.542969 C 1.167969 21.84375 1.203125 21.144531 1.269531 20.449219 C 1.339844 19.75 1.441406 19.058594 1.578125 18.371094 C 1.714844 17.6875 1.882812 17.007812 2.085938 16.335938 C 2.289062 15.667969 2.527344 15.007812 2.792969 14.363281 C 3.0625 13.714844 3.359375 13.082031 3.691406 12.464844 C 4.019531 11.847656 4.378906 11.25 4.769531 10.667969 C 5.160156 10.085938 5.574219 9.523438 6.019531 8.980469 C 6.464844 8.441406 6.933594 7.921875 7.429688 7.429688 C 7.921875 6.933594 8.441406 6.464844 8.980469 6.019531 C 9.523438 5.574219 10.085938 5.160156 10.667969 4.769531 C 11.25 4.382812 11.847656 4.019531 12.464844 3.691406 C 13.082031 3.363281 13.714844 3.0625 14.363281 2.792969 C 15.007812 2.527344 15.667969 2.292969 16.335938 2.085938 C 17.007812 1.882812 17.6875 1.714844 18.371094 1.578125 C 19.058594 1.441406 19.75 1.339844 20.445312 1.269531 C 21.144531 1.203125 21.84375 1.167969 22.542969 1.167969 C 23.242188 1.167969 23.941406 1.203125 24.636719 1.269531 C 25.335938 1.339844 26.027344 1.441406 26.710938 1.578125 C 27.398438 1.714844 28.078125 1.882812 28.746094 2.085938 C 29.417969 2.292969 30.074219 2.527344 30.722656 2.792969 C 31.367188 3.0625 32 3.363281 32.617188 3.691406 C 33.234375 4.019531 33.835938 4.382812 34.417969 4.769531 C 35 5.160156 35.5625 5.574219 36.101562 6.019531 C 36.644531 6.464844 37.160156 6.933594 37.65625 7.429688 C 38.152344 7.921875 38.621094 8.441406 39.066406 8.980469 C 39.507812 9.523438 39.925781 10.085938 40.316406 10.667969 C 40.703125 11.25 41.0625 11.847656 41.394531 12.464844 C 41.722656 13.082031 42.023438 13.714844 42.289062 14.363281 C 42.558594 15.007812 42.792969 15.667969 42.996094 16.335938 C 43.199219 17.007812 43.371094 17.6875 43.507812 18.371094 C 43.644531 19.058594 43.746094 19.75 43.816406 20.449219 C 43.882812 21.144531 43.917969 21.84375 43.917969 22.542969 Z M 43.917969 22.542969 " fill-opacity="1" fill-rule="nonzero"/></g><path fill="#ffffff" d="M 17.160156 12.269531 C 17.160156 12.648438 17.085938 13.011719 16.941406 13.359375 C 16.796875 13.707031 16.59375 14.015625 16.328125 14.28125 C 16.058594 14.546875 15.753906 14.753906 15.402344 14.898438 C 15.054688 15.042969 14.691406 15.113281 14.316406 15.113281 C 13.9375 15.113281 13.574219 15.042969 13.226562 14.898438 C 12.878906 14.753906 12.570312 14.546875 12.304688 14.28125 C 12.035156 14.015625 11.832031 13.707031 11.6875 13.359375 C 11.542969 13.011719 11.46875 12.648438 11.46875 12.269531 C 11.46875 11.890625 11.542969 11.53125 11.6875 11.179688 C 11.832031 10.832031 12.035156 10.523438 12.304688 10.257812 C 12.570312 9.992188 12.878906 9.785156 13.226562 9.640625 C 13.574219 9.496094 13.9375 9.425781 14.316406 9.425781 C 14.691406 9.425781 15.054688 9.496094 15.402344 9.640625 C 15.753906 9.785156 16.058594 9.992188 16.328125 10.257812 C 16.59375 10.523438 16.796875 10.832031 16.941406 11.179688 C 17.085938 11.53125 17.160156 11.890625 17.160156 12.269531 Z M 17.160156 12.269531 " fill-opacity="1" fill-rule="nonzero"/><path fill="#ffffff" d="M 11.863281 17.210938 L 16.75 17.210938 L 16.75 32.933594 L 11.863281 32.933594 Z M 11.863281 17.210938 " fill-opacity="1" fill-rule="nonzero"/><path fill="#ffffff" d="M 19.824219 17.210938 L 24.476562 17.210938 L 24.476562 32.933594 L 19.824219 32.933594 Z M 19.824219 17.210938 " fill-opacity="1" fill-rule="nonzero"/><path fill="#ffffff" d="M 20.023438 25.582031 L 24.675781 25.582031 L 24.675781 32.933594 L 20.023438 32.933594 Z M 20.023438 25.582031 " fill-opacity="1" fill-rule="nonzero"/><path fill="#ffffff" d="M 24.675781 25.582031 C 24.675781 25.582031 24.605469 23.542969 25.140625 22.484375 C 25.140625 22.484375 25.679688 21.175781 27.371094 21.167969 C 27.371094 21.167969 29.351562 20.824219 29.921875 22.789062 C 29.921875 22.789062 30.136719 23.882812 30.136719 24.34375 C 30.136719 24.804688 30.152344 32.933594 30.152344 32.933594 L 35.023438 32.933594 L 35.023438 23.929688 C 35.023438 23.929688 35.375 18.839844 32.324219 17.449219 C 32.324219 17.449219 27.304688 15.195312 24.578125 19.332031 C 24.578125 19.332031 23.984375 19.742188 23.902344 18.59375 C 23.820312 17.449219 23.121094 20.359375 23.101562 20.417969 C 23.082031 20.480469 23.902344 26.21875 23.902344 26.21875 Z M 24.675781 25.582031 " fill-opacity="1" fill-rule="nonzero"/></svg>