<svg xmlns="http://www.w3.org/2000/svg" xmlns:xlink="http://www.w3.org/1999/xlink" width="60" zoomAndPan="magnify" viewBox="0 0 45 44.999999" height="60" preserveAspectRatio="xMidYMid meet" version="1.0"><defs><clipPath id="id1"><path d="M 1.132812 1.132812 L 43.882812 1.132812 L 43.882812 43.882812 L 1.132812 43.882812 Z M 1.132812 1.132812 " clip-rule="nonzero"/></clipPath></defs><g clip-path="url(#id1)"><path fill="#000000" d="M 22.488281 1.121094 C 10.6875 1.121094 1.121094 10.6875 1.121094 22.488281 C 1.121094 34.292969 10.6875 43.859375 22.488281 43.859375 C 34.292969 43.859375 43.859375 34.292969 43.859375 22.488281 C 43.859375 10.6875 34.292969 1.121094 22.488281 1.121094 Z M 11.976562 14.722656 L 33 14.722656 C 33.125 14.722656 33.242188 14.734375 33.363281 14.753906 L 22.488281 21.535156 L 11.617188 14.753906 C 11.734375 14.734375 11.855469 14.722656 11.976562 14.722656 Z M 35.289062 29.101562 C 35.289062 30.367188 34.265625 31.394531 33 31.394531 L 11.976562 31.394531 C 10.710938 31.394531 9.6875 30.367188 9.6875 29.101562 L 9.6875 17.011719 C 9.6875 16.878906 9.703125 16.75 9.722656 16.621094 L 21.804688 24.15625 C 21.820312 24.164062 21.835938 24.171875 21.851562 24.179688 C 21.867188 24.1875 21.882812 24.195312 21.898438 24.203125 C 21.984375 24.246094 22.074219 24.285156 22.164062 24.308594 C 22.171875 24.308594 22.179688 24.3125 22.191406 24.3125 C 22.289062 24.335938 22.386719 24.351562 22.488281 24.351562 C 22.488281 24.351562 22.488281 24.351562 22.492188 24.351562 C 22.589844 24.351562 22.691406 24.335938 22.789062 24.3125 C 22.796875 24.3125 22.808594 24.308594 22.816406 24.308594 C 22.90625 24.285156 22.996094 24.246094 23.078125 24.203125 C 23.09375 24.195312 23.113281 24.1875 23.128906 24.179688 C 23.144531 24.171875 23.160156 24.164062 23.171875 24.15625 L 35.253906 16.621094 C 35.277344 16.75 35.289062 16.878906 35.289062 17.011719 Z M 35.289062 29.101562 " fill-opacity="1" fill-rule="nonzero"/></g></svg>