<svg xmlns="http://www.w3.org/2000/svg" xmlns:xlink="http://www.w3.org/1999/xlink" width="40" zoomAndPan="magnify" viewBox="0 0 30 30.000001" height="40" preserveAspectRatio="xMidYMid meet" version="1.0"><defs><clipPath id="id1"><path d="M 0.484375 0 L 29.515625 0 L 29.515625 28.304688 L 0.484375 28.304688 Z M 0.484375 0 " clip-rule="nonzero"/></clipPath><clipPath id="id2"><path d="M 7.101562 9.464844 L 23 9.464844 L 23 18.902344 L 7.101562 18.902344 Z M 7.101562 9.464844 " clip-rule="nonzero"/></clipPath></defs><g clip-path="url(#id1)"><path fill="#000000" d="M 15 0 C 6.984375 0 0.484375 6.335938 0.484375 14.152344 C 0.484375 21.96875 6.984375 28.304688 15 28.304688 C 23.015625 28.304688 29.515625 21.96875 29.515625 14.152344 C 29.515625 6.335938 23.015625 0 15 0 " fill-opacity="1" fill-rule="nonzero"/></g><g clip-path="url(#id2)"><path fill="#ffffff" d="M 7.101562 10.667969 C 7.101562 10.410156 7.199219 10.167969 7.398438 9.972656 C 7.78125 9.59375 8.410156 9.59375 8.804688 9.972656 L 14.996094 16.097656 L 21.277344 9.875 C 21.660156 9.496094 22.289062 9.496094 22.683594 9.875 C 23.066406 10.253906 23.066406 10.875 22.683594 11.265625 L 14.984375 18.871094 L 7.398438 11.363281 C 7.199219 11.167969 7.101562 10.925781 7.101562 10.667969 Z M 7.101562 10.667969 " fill-opacity="1" fill-rule="nonzero"/></g></svg>